<svg xmlns="http://www.w3.org/2000/svg" width="382.872" height="90.001" viewBox="0 0 382.872 90.001">
  <g id="Logo-Color" transform="translate(-30.688 -29.971)">
    <g id="Layer_1-2" data-name="Layer 1-2" transform="translate(30.688 29.971)">
      <path id="Path_1" data-name="Path 1" d="M36.161,58.8h0a5.459,5.459,0,0,0-5.473,5.442v23.2a5.458,5.458,0,0,0,5.458,5.458H59.2a5.459,5.459,0,0,0,5.52-5.4v-.062h0a5.458,5.458,0,0,0-5.458-5.458H46.2a4.609,4.609,0,0,1-4.61-4.61V64.3a5.458,5.458,0,0,0-5.411-5.5Z" transform="translate(-30.688 -2.892)" fill="#e82720"/>
      <path id="Path_2" data-name="Path 2" d="M30.688,40.911V64.244A5.411,5.411,0,0,0,36.1,69.655h0a5.533,5.533,0,0,0,5.518-5.533V51.071a4.611,4.611,0,0,1,4.612-4.534H59.387A5.4,5.4,0,0,0,64.8,41.155v-.244a5.287,5.287,0,0,0-5.287-5.289H35.992a5.29,5.29,0,0,0-5.3,5.273Z" transform="translate(-30.688 -24.663)" fill="#f4a600"/>
      <path id="Path_3" data-name="Path 3" d="M72.394,81.864H59.329a5.456,5.456,0,0,0-5.458,5.456v.062h0a5.458,5.458,0,0,0,5.458,5.458H82.384a5.459,5.459,0,0,0,5.52-5.4V64.324a5.471,5.471,0,0,0-5.473-5.471h0a5.455,5.455,0,0,0-5.456,5.456V77.39A4.615,4.615,0,0,1,72.394,81.864Z" transform="translate(-8.91 -2.839)" fill="#39a244"/>
      <rect id="Rectangle_2" data-name="Rectangle 2" width="44.992" height="44.992" rx="4.969" transform="translate(44.962)" fill="#0064a8"/>
      <path id="Path_4" data-name="Path 4" d="M114.84,49.236a20.536,20.536,0,0,0-10.283-2.475,22,22,0,0,0-11.745,3.074,19.769,19.769,0,0,0-7.546,8.223,26.921,26.921,0,0,0,.215,23.4,20.847,20.847,0,0,0,8.239,8.5,25.92,25.92,0,0,0,13.173,3.152,32.781,32.781,0,0,0,14.926-3.427l-.721-8.363a26.439,26.439,0,0,1-13.219,3.3,15.5,15.5,0,0,1-9.93-3.152Q93.933,78.318,93.136,71.4h30.111a23.55,23.55,0,0,0,.63-5.489,20.737,20.737,0,0,0-2.3-9.9A16.537,16.537,0,0,0,114.84,49.236ZM93.489,64.607q2.228-9.332,10.975-9.346a8.342,8.342,0,0,1,6.825,2.69,10.04,10.04,0,0,1,2.259,6.656Z" transform="translate(18.169 -14.204)" fill="#424342"/>
      <path id="Path_5" data-name="Path 5" d="M128.311,46.758a20.61,20.61,0,0,0-13.035,4.488l-.353-3.673h-8.9V92.15h10.068V59.609a11.575,11.575,0,0,1,9.715-4.4c3.536,0,6.057,1.014,7.595,3.074s2.29,5.273,2.29,9.7V92.166h9.974V67.357q0-9.638-4.3-15.112C138.471,48.587,134.137,46.758,128.311,46.758Z" transform="translate(40.083 -14.202)" fill="#424342"/>
      <path id="Path_6" data-name="Path 6" d="M144.4,41.329l-10.069,1.092V52.673h-5.855l-.892,8.132h6.747V86.936a11.472,11.472,0,0,0,3.076,7.992,11.287,11.287,0,0,0,8.853,3.336h7.686l.921-8.254h-2.69a20.913,20.913,0,0,1-5.349-.446,2.739,2.739,0,0,1-1.937-1.937,22.268,22.268,0,0,1-.444-5.44V60.8h10.42V52.673H144.351Z" transform="translate(60.335 -19.301)" fill="#424342"/>
      <path id="Path_7" data-name="Path 7" d="M176.8,49.815a25.124,25.124,0,0,0-24.194,0,20.8,20.8,0,0,0-7.855,8.409,26.2,26.2,0,0,0,0,23.38,20.874,20.874,0,0,0,7.855,8.407,25.114,25.114,0,0,0,24.194,0,20.609,20.609,0,0,0,7.824-8.407,26.607,26.607,0,0,0,0-23.38A20.513,20.513,0,0,0,176.8,49.815ZM173.725,80.7a11.184,11.184,0,0,1-9.131,3.966,11.031,11.031,0,0,1-9.069-3.966,16.467,16.467,0,0,1-3.245-10.76,16.554,16.554,0,0,1,3.245-10.76,11.024,11.024,0,0,1,9.069-4,11.17,11.17,0,0,1,9.131,4,16.407,16.407,0,0,1,3.289,10.76,16.309,16.309,0,0,1-3.227,10.76Z" transform="translate(73.878 -14.246)" fill="#424342"/>
      <path id="Path_8" data-name="Path 8" d="M218.408,46.76A20.178,20.178,0,0,0,209.54,48.6a15.461,15.461,0,0,0-6.148,5.258q-4.244-7.1-13.405-7.1a20.821,20.821,0,0,0-13.4,4.765l-.63-3.951H167.59V92.152h10.085V59.7a11.543,11.543,0,0,1,9.79-4.488,8.276,8.276,0,0,1,6.98,2.967q2.29,2.967,2.29,9.792V92.168h9.974V66.988a14.356,14.356,0,0,1,2.337-8.545q2.307-3.229,7.686-3.229,4.873,0,6.978,2.921t2.106,9.224V92.168H235.9V66.8q0-9.7-4.321-14.879T218.408,46.76Z" transform="translate(97.92 -14.204)" fill="#424342"/>
      <path id="Path_9" data-name="Path 9" d="M247.356,58.224a20.527,20.527,0,0,0-7.824-8.409,25.128,25.128,0,0,0-24.2,0,20.828,20.828,0,0,0-7.855,8.409,26.216,26.216,0,0,0,0,23.38,20.887,20.887,0,0,0,7.855,8.407,25.118,25.118,0,0,0,24.2,0,20.609,20.609,0,0,0,7.824-8.407A26.608,26.608,0,0,0,247.356,58.224ZM236.6,80.7a11.184,11.184,0,0,1-9.131,3.966A11.031,11.031,0,0,1,218.4,80.7a16.467,16.467,0,0,1-3.245-10.76,16.554,16.554,0,0,1,3.245-10.76,11.024,11.024,0,0,1,9.069-4,11.17,11.17,0,0,1,9.131,4,16.408,16.408,0,0,1,3.289,10.76,16.309,16.309,0,0,1-3.367,10.76Z" transform="translate(132.81 -14.246)" fill="#424342"/>
    </g>
  </g>
</svg>
